<svg width="42" height="42" viewBox="0 0 42 42" fill="none" xmlns="http://www.w3.org/2000/svg">
<rect width="42" height="42" rx="21" fill="white"/>
<path fill-rule="evenodd" clip-rule="evenodd" d="M31.5542 27.8691L31.9042 29.5316C32.2359 30.9689 31.9084 32.4793 31.0112 33.6502C30.114 34.821 28.7408 35.5301 27.2667 35.5837H13.7334C12.2592 35.5301 10.8861 34.821 9.98888 33.6502C9.09168 32.4793 8.7642 30.9689 9.09587 29.5316L9.44587 27.8691C9.84842 25.6186 11.783 23.9647 14.0688 23.917H26.9313C29.217 23.9647 31.1517 25.6186 31.5542 27.8691ZM27.2667 33.3816C28.0072 33.373 28.7041 33.0299 29.1625 32.4483V32.4629C29.725 31.7573 29.9441 30.838 29.7605 29.9545L29.4105 28.292C29.2163 27.06 28.1776 26.1375 26.9313 26.09H14.0688C12.8224 26.1375 11.7838 27.06 11.5896 28.292L11.2396 29.9545C11.0605 30.8333 11.2794 31.7463 11.8375 32.4483C12.2959 33.0299 12.9928 33.373 13.7334 33.3816H27.2667Z" fill="#434D97"/>
<path fill-rule="evenodd" clip-rule="evenodd" d="M21.2292 21.0003H19.7708C16.5492 21.0003 13.9375 18.3887 13.9375 15.167V11.317C13.9336 10.0163 14.4486 8.76767 15.3684 7.8479C16.2882 6.92813 17.5368 6.41313 18.8375 6.41701H22.1625C23.4633 6.41313 24.7119 6.92813 25.6316 7.8479C26.5514 8.76767 27.0664 10.0163 27.0625 11.317V15.167C27.0625 18.3887 24.4508 21.0003 21.2292 21.0003ZM18.8375 8.60451C17.3394 8.60451 16.125 9.81894 16.125 11.317V15.167C16.125 17.1806 17.7573 18.8128 19.7708 18.8128H21.2292C23.2427 18.8128 24.875 17.1806 24.875 15.167V11.317C24.875 10.5976 24.5892 9.90768 24.0805 9.39899C23.5718 8.89029 22.8819 8.60451 22.1625 8.60451H18.8375Z" fill="#434D97"/>
</svg>
