<svg width="274" height="206" viewBox="0 0 274 206" fill="none" xmlns="http://www.w3.org/2000/svg">
<rect x="0.5" y="0.5" width="273" height="205" rx="14.5" fill="#EFF0FB"/>
<rect x="0.5" y="0.5" width="273" height="205" rx="14.5" stroke="#949DE3"/>
<path d="M72.1144 58H63.7144V55.956L66.1224 55.06V40.976L63.7144 40.052V38.008H72.1144V40.052L69.7064 40.976V55.06L72.1144 55.956V58ZM83.4857 42.544C85.1843 42.544 86.5097 42.9827 87.4617 43.86C88.4323 44.7373 88.9177 46.156 88.9177 48.116V58H85.3897V48.816C85.3897 47.6773 85.1657 46.828 84.7177 46.268C84.2697 45.6893 83.5603 45.4 82.5897 45.4C81.171 45.4 80.2003 45.848 79.6777 46.744C79.155 47.6213 78.8937 48.9 78.8937 50.58V58H75.3657V42.824H78.0817L78.5857 44.812H78.7817C79.1177 44.2893 79.5283 43.86 80.0137 43.524C80.499 43.188 81.0403 42.9453 81.6377 42.796C82.235 42.628 82.851 42.544 83.4857 42.544ZM101.199 45.484H97.5305V58H94.0025V45.484H91.5665V43.804L94.0025 42.796V41.76C94.0025 40.4533 94.2078 39.4267 94.6185 38.68C95.0292 37.9333 95.6265 37.4013 96.4105 37.084C97.1945 36.748 98.1185 36.58 99.1825 36.58C99.9292 36.58 100.601 36.6453 101.199 36.776C101.796 36.888 102.291 37.0187 102.683 37.168L101.787 39.8C101.469 39.7067 101.115 39.6227 100.723 39.548C100.349 39.4547 99.9385 39.408 99.4905 39.408C98.8185 39.408 98.3238 39.6227 98.0065 40.052C97.6892 40.4813 97.5305 41.0787 97.5305 41.844V42.824H101.199V45.484ZM117.273 50.384C117.273 51.6533 117.105 52.7733 116.769 53.744C116.433 54.7147 115.948 55.5453 115.313 56.236C114.697 56.908 113.932 57.4213 113.017 57.776C112.121 58.112 111.122 58.28 110.021 58.28C108.976 58.28 108.014 58.112 107.137 57.776C106.26 57.4213 105.494 56.908 104.841 56.236C104.206 55.5453 103.712 54.7147 103.357 53.744C103.002 52.7733 102.825 51.6533 102.825 50.384C102.825 48.704 103.114 47.2853 103.693 46.128C104.272 44.952 105.102 44.0653 106.185 43.468C107.286 42.852 108.584 42.544 110.077 42.544C111.496 42.544 112.737 42.852 113.801 43.468C114.884 44.0653 115.733 44.952 116.349 46.128C116.965 47.2853 117.273 48.704 117.273 50.384ZM106.437 50.384C106.437 51.448 106.558 52.3627 106.801 53.128C107.062 53.8747 107.454 54.444 107.977 54.836C108.518 55.228 109.209 55.424 110.049 55.424C110.908 55.424 111.598 55.228 112.121 54.836C112.662 54.444 113.054 53.8747 113.297 53.128C113.54 52.3627 113.661 51.448 113.661 50.384C113.661 49.3013 113.53 48.396 113.269 47.668C113.026 46.9213 112.634 46.3613 112.093 45.988C111.57 45.596 110.889 45.4 110.049 45.4C108.78 45.4 107.856 45.8293 107.277 46.688C106.717 47.5467 106.437 48.7787 106.437 50.384ZM128.872 42.544C129.096 42.544 129.358 42.5533 129.656 42.572C129.955 42.5907 130.207 42.628 130.412 42.684L130.104 45.96C129.936 45.9227 129.712 45.8947 129.432 45.876C129.171 45.8387 128.938 45.82 128.732 45.82C128.172 45.82 127.631 45.9133 127.108 46.1C126.604 46.268 126.147 46.5293 125.736 46.884C125.344 47.22 125.027 47.6587 124.784 48.2C124.56 48.7413 124.448 49.3853 124.448 50.132V58H120.92V42.824H123.636L124.14 45.456H124.308C124.607 44.9147 124.98 44.4293 125.428 44C125.876 43.552 126.39 43.1973 126.968 42.936C127.566 42.6747 128.2 42.544 128.872 42.544ZM150.613 42.544C152.33 42.544 153.618 42.9827 154.477 43.86C155.354 44.7373 155.793 46.156 155.793 48.116V58H152.265V48.788C152.265 47.668 152.06 46.828 151.649 46.268C151.238 45.6893 150.585 45.4 149.689 45.4C148.457 45.4 147.58 45.8013 147.057 46.604C146.534 47.4067 146.273 48.5733 146.273 50.104V58H142.745V48.788C142.745 48.0413 142.652 47.416 142.465 46.912C142.278 46.408 141.989 46.0347 141.597 45.792C141.224 45.5307 140.738 45.4 140.141 45.4C139.301 45.4 138.629 45.6053 138.125 46.016C137.621 46.408 137.266 46.9867 137.061 47.752C136.856 48.5173 136.753 49.46 136.753 50.58V58H133.225V42.824H135.941L136.445 44.812H136.641C136.958 44.2893 137.341 43.86 137.789 43.524C138.256 43.188 138.769 42.9453 139.329 42.796C139.908 42.628 140.486 42.544 141.065 42.544C142.204 42.544 143.165 42.74 143.949 43.132C144.733 43.5053 145.321 44.0933 145.713 44.896H145.993C146.46 44.0747 147.113 43.4773 147.953 43.104C148.812 42.7307 149.698 42.544 150.613 42.544ZM166.261 42.544C168.221 42.544 169.705 42.9733 170.713 43.832C171.74 44.672 172.253 45.9973 172.253 47.808V58H169.761L169.061 55.9H168.949C168.52 56.4413 168.072 56.8987 167.605 57.272C167.157 57.6267 166.635 57.8787 166.037 58.028C165.459 58.196 164.749 58.28 163.909 58.28C163.013 58.28 162.201 58.112 161.473 57.776C160.764 57.44 160.204 56.9267 159.793 56.236C159.383 55.5267 159.177 54.64 159.177 53.576C159.177 52.008 159.747 50.832 160.885 50.048C162.043 49.2453 163.788 48.8067 166.121 48.732L168.753 48.648V47.892C168.753 46.9213 168.52 46.2307 168.053 45.82C167.587 45.4093 166.933 45.204 166.093 45.204C165.328 45.204 164.591 45.316 163.881 45.54C163.172 45.764 162.481 46.0253 161.809 46.324L160.689 43.86C161.436 43.468 162.285 43.1507 163.237 42.908C164.208 42.6653 165.216 42.544 166.261 42.544ZM166.905 50.888C165.356 50.944 164.283 51.2147 163.685 51.7C163.088 52.1667 162.789 52.8013 162.789 53.604C162.789 54.3133 163.004 54.8267 163.433 55.144C163.863 55.4613 164.413 55.62 165.085 55.62C166.112 55.62 166.98 55.3307 167.689 54.752C168.399 54.1547 168.753 53.2773 168.753 52.12V50.832L166.905 50.888ZM187.006 53.604C187.006 54.612 186.764 55.4707 186.278 56.18C185.793 56.8707 185.074 57.3933 184.122 57.748C183.189 58.1027 182.041 58.28 180.678 58.28C179.614 58.28 178.7 58.2053 177.934 58.056C177.169 57.9067 176.441 57.6733 175.75 57.356V54.36C176.497 54.7147 177.328 55.0133 178.242 55.256C179.157 55.4987 180.006 55.62 180.79 55.62C181.761 55.62 182.461 55.4707 182.89 55.172C183.32 54.8733 183.534 54.472 183.534 53.968C183.534 53.6693 183.45 53.3987 183.282 53.156C183.114 52.9133 182.788 52.6613 182.302 52.4C181.817 52.12 181.08 51.7747 180.09 51.364C179.12 50.972 178.308 50.58 177.654 50.188C177.02 49.796 176.534 49.3293 176.198 48.788C175.881 48.228 175.722 47.528 175.722 46.688C175.722 45.3253 176.264 44.2987 177.346 43.608C178.429 42.8987 179.857 42.544 181.63 42.544C182.564 42.544 183.441 42.6373 184.262 42.824C185.102 42.992 185.942 43.272 186.782 43.664L185.662 46.268C185.196 46.0627 184.729 45.8853 184.262 45.736C183.814 45.568 183.357 45.4373 182.89 45.344C182.442 45.2507 181.985 45.204 181.518 45.204C180.753 45.204 180.174 45.3253 179.782 45.568C179.39 45.792 179.194 46.1093 179.194 46.52C179.194 46.8373 179.288 47.1173 179.474 47.36C179.68 47.584 180.025 47.8173 180.51 48.06C181.014 48.284 181.724 48.5827 182.638 48.956C183.553 49.3107 184.328 49.684 184.962 50.076C185.616 50.4493 186.12 50.916 186.474 51.476C186.829 52.036 187.006 52.7453 187.006 53.604ZM193.929 42.824V58H190.401V42.824H193.929ZM192.165 36.972C192.687 36.972 193.145 37.112 193.537 37.392C193.929 37.6533 194.125 38.1293 194.125 38.82C194.125 39.492 193.929 39.9773 193.537 40.276C193.145 40.556 192.687 40.696 192.165 40.696C191.623 40.696 191.157 40.556 190.765 40.276C190.391 39.9773 190.205 39.492 190.205 38.82C190.205 38.1293 190.391 37.6533 190.765 37.392C191.157 37.112 191.623 36.972 192.165 36.972ZM205.209 56.208C205.209 55.424 205.415 54.8733 205.825 54.556C206.236 54.22 206.74 54.052 207.337 54.052C207.935 54.052 208.439 54.2107 208.849 54.528C209.279 54.8453 209.493 55.4053 209.493 56.208C209.493 56.9733 209.279 57.524 208.849 57.86C208.439 58.196 207.935 58.364 207.337 58.364C206.74 58.364 206.236 58.196 205.825 57.86C205.415 57.524 205.209 56.9733 205.209 56.208ZM205.209 44.672C205.209 43.8693 205.415 43.3093 205.825 42.992C206.236 42.656 206.74 42.488 207.337 42.488C207.935 42.488 208.439 42.6467 208.849 42.964C209.279 43.2813 209.493 43.8507 209.493 44.672C209.493 45.4373 209.279 45.988 208.849 46.324C208.439 46.66 207.935 46.828 207.337 46.828C206.74 46.828 206.236 46.66 205.825 46.324C205.415 45.988 205.209 45.4373 205.209 44.672Z" fill="#131313"/>
<path d="M61.9912 120.18C61.9912 121.033 61.7845 121.76 61.3712 122.36C60.9578 122.947 60.3645 123.4 59.5912 123.72C58.8312 124.04 57.9312 124.2 56.8912 124.2C56.3578 124.2 55.8445 124.173 55.3512 124.12C54.8712 124.067 54.4312 123.993 54.0312 123.9C53.6312 123.793 53.2778 123.667 52.9712 123.52V121.8C53.4512 122.013 54.0445 122.207 54.7512 122.38C55.4712 122.553 56.2112 122.64 56.9712 122.64C57.6778 122.64 58.2712 122.547 58.7512 122.36C59.2312 122.173 59.5912 121.907 59.8312 121.56C60.0712 121.213 60.1912 120.807 60.1912 120.34C60.1912 119.873 60.0912 119.48 59.8912 119.16C59.6912 118.84 59.3445 118.547 58.8512 118.28C58.3712 118 57.6978 117.707 56.8312 117.4C56.2178 117.173 55.6778 116.933 55.2112 116.68C54.7578 116.413 54.3778 116.113 54.0712 115.78C53.7645 115.447 53.5312 115.067 53.3712 114.64C53.2245 114.213 53.1512 113.72 53.1512 113.16C53.1512 112.4 53.3445 111.753 53.7312 111.22C54.1178 110.673 54.6512 110.253 55.3312 109.96C56.0245 109.667 56.8178 109.52 57.7112 109.52C58.4978 109.52 59.2178 109.593 59.8712 109.74C60.5245 109.887 61.1178 110.08 61.6512 110.32L61.0912 111.86C60.5978 111.647 60.0578 111.467 59.4712 111.32C58.8978 111.173 58.2978 111.1 57.6712 111.1C57.0712 111.1 56.5712 111.187 56.1712 111.36C55.7712 111.533 55.4712 111.78 55.2712 112.1C55.0712 112.407 54.9712 112.767 54.9712 113.18C54.9712 113.66 55.0712 114.06 55.2712 114.38C55.4712 114.7 55.7978 114.987 56.2512 115.24C56.7045 115.493 57.3178 115.767 58.0912 116.06C58.9312 116.367 59.6378 116.7 60.2112 117.06C60.7978 117.407 61.2378 117.827 61.5312 118.32C61.8378 118.813 61.9912 119.433 61.9912 120.18ZM66.3877 113.28V124H64.6277V113.28H66.3877ZM65.5277 109.26C65.7944 109.26 66.0277 109.353 66.2277 109.54C66.4411 109.713 66.5477 109.993 66.5477 110.38C66.5477 110.753 66.4411 111.033 66.2277 111.22C66.0277 111.407 65.7944 111.5 65.5277 111.5C65.2344 111.5 64.9877 111.407 64.7877 111.22C64.5877 111.033 64.4877 110.753 64.4877 110.38C64.4877 109.993 64.5877 109.713 64.7877 109.54C64.9877 109.353 65.2344 109.26 65.5277 109.26ZM76.764 121.04C76.764 121.733 76.5907 122.313 76.244 122.78C75.8973 123.247 75.404 123.6 74.764 123.84C74.124 124.08 73.364 124.2 72.484 124.2C71.7373 124.2 71.0907 124.14 70.544 124.02C70.0107 123.9 69.5373 123.733 69.124 123.52V121.92C69.5507 122.133 70.064 122.333 70.664 122.52C71.2773 122.693 71.8973 122.78 72.524 122.78C73.4173 122.78 74.064 122.64 74.464 122.36C74.864 122.067 75.064 121.68 75.064 121.2C75.064 120.933 74.9907 120.693 74.844 120.48C74.6973 120.267 74.4307 120.053 74.044 119.84C73.6707 119.627 73.1307 119.387 72.424 119.12C71.7307 118.853 71.1373 118.587 70.644 118.32C70.1507 118.053 69.7707 117.733 69.504 117.36C69.2373 116.987 69.104 116.507 69.104 115.92C69.104 115.013 69.4707 114.313 70.204 113.82C70.9507 113.327 71.924 113.08 73.124 113.08C73.7773 113.08 74.384 113.147 74.944 113.28C75.5173 113.4 76.0507 113.573 76.544 113.8L75.944 115.2C75.6507 115.067 75.3373 114.953 75.004 114.86C74.684 114.753 74.3573 114.673 74.024 114.62C73.6907 114.553 73.3507 114.52 73.004 114.52C72.284 114.52 71.7307 114.64 71.344 114.88C70.9707 115.107 70.784 115.42 70.784 115.82C70.784 116.113 70.8707 116.367 71.044 116.58C71.2173 116.78 71.504 116.98 71.904 117.18C72.3173 117.367 72.864 117.593 73.544 117.86C74.224 118.113 74.804 118.373 75.284 118.64C75.764 118.907 76.1307 119.233 76.384 119.62C76.6373 119.993 76.764 120.467 76.764 121.04ZM86.2743 117.94C86.1943 117.66 86.1143 117.387 86.0343 117.12C85.9543 116.84 85.881 116.58 85.8143 116.34C85.761 116.087 85.7076 115.853 85.6543 115.64C85.601 115.427 85.561 115.247 85.5343 115.1H85.4543C85.4276 115.247 85.3876 115.427 85.3343 115.64C85.2943 115.853 85.241 116.087 85.1743 116.34C85.121 116.593 85.0543 116.86 84.9743 117.14C84.9076 117.407 84.8276 117.68 84.7343 117.96L82.8143 123.98H80.8143L77.8743 113.26H79.6943L81.1743 118.98C81.281 119.367 81.381 119.76 81.4743 120.16C81.5676 120.547 81.6476 120.92 81.7143 121.28C81.7943 121.627 81.8476 121.927 81.8743 122.18H81.9543C81.9943 122.02 82.041 121.82 82.0943 121.58C82.1476 121.34 82.201 121.087 82.2543 120.82C82.321 120.553 82.3876 120.287 82.4543 120.02C82.5343 119.753 82.6076 119.513 82.6743 119.3L84.5743 113.26H86.4943L88.3343 119.3C88.4276 119.607 88.521 119.933 88.6143 120.28C88.721 120.627 88.8143 120.967 88.8943 121.3C88.9743 121.62 89.0276 121.907 89.0543 122.16H89.1343C89.161 121.933 89.2076 121.653 89.2743 121.32C89.3543 120.973 89.441 120.6 89.5343 120.2C89.641 119.787 89.7476 119.38 89.8543 118.98L91.3543 113.26H93.1543L90.1743 123.98H88.1143L86.2743 117.94ZM99.137 113.1C100.444 113.1 101.41 113.387 102.037 113.96C102.664 114.533 102.977 115.447 102.977 116.7V124H101.697L101.357 122.48H101.277C100.97 122.867 100.65 123.193 100.317 123.46C99.997 123.713 99.6236 123.9 99.197 124.02C98.7836 124.14 98.277 124.2 97.677 124.2C97.037 124.2 96.457 124.087 95.937 123.86C95.4303 123.633 95.0303 123.287 94.737 122.82C94.4436 122.34 94.297 121.74 94.297 121.02C94.297 119.953 94.717 119.133 95.557 118.56C96.397 117.973 97.6903 117.653 99.437 117.6L101.257 117.54V116.9C101.257 116.007 101.064 115.387 100.677 115.04C100.29 114.693 99.7436 114.52 99.037 114.52C98.477 114.52 97.9436 114.607 97.437 114.78C96.9303 114.94 96.457 115.127 96.017 115.34L95.477 114.02C95.9436 113.767 96.497 113.553 97.137 113.38C97.777 113.193 98.4436 113.1 99.137 113.1ZM99.657 118.82C98.3236 118.873 97.397 119.087 96.877 119.46C96.3703 119.833 96.117 120.36 96.117 121.04C96.117 121.64 96.297 122.08 96.657 122.36C97.0303 122.64 97.5036 122.78 98.077 122.78C98.9836 122.78 99.737 122.533 100.337 122.04C100.937 121.533 101.237 120.76 101.237 119.72V118.76L99.657 118.82ZM123.243 113.08C124.457 113.08 125.363 113.393 125.963 114.02C126.563 114.633 126.863 115.633 126.863 117.02V124H125.123V117.1C125.123 116.26 124.943 115.627 124.583 115.2C124.237 114.773 123.69 114.56 122.943 114.56C121.903 114.56 121.157 114.86 120.703 115.46C120.263 116.06 120.043 116.933 120.043 118.08V124H118.303V117.1C118.303 116.54 118.223 116.073 118.063 115.7C117.903 115.313 117.663 115.027 117.343 114.84C117.023 114.653 116.61 114.56 116.103 114.56C115.383 114.56 114.817 114.713 114.403 115.02C113.99 115.313 113.69 115.747 113.503 116.32C113.33 116.893 113.243 117.6 113.243 118.44V124H111.483V113.28H112.903L113.163 114.74H113.263C113.49 114.367 113.763 114.06 114.083 113.82C114.417 113.567 114.783 113.38 115.183 113.26C115.583 113.14 115.997 113.08 116.423 113.08C117.25 113.08 117.937 113.227 118.483 113.52C119.043 113.813 119.45 114.267 119.703 114.88H119.803C120.163 114.267 120.65 113.813 121.263 113.52C121.89 113.227 122.55 113.08 123.243 113.08ZM134.315 113.08C135.235 113.08 136.021 113.28 136.675 113.68C137.341 114.08 137.848 114.647 138.195 115.38C138.555 116.1 138.735 116.947 138.735 117.92V118.98H131.395C131.421 120.193 131.728 121.12 132.315 121.76C132.915 122.387 133.748 122.7 134.815 122.7C135.495 122.7 136.095 122.64 136.615 122.52C137.148 122.387 137.695 122.2 138.255 121.96V123.5C137.708 123.74 137.168 123.913 136.635 124.02C136.101 124.14 135.468 124.2 134.735 124.2C133.721 124.2 132.821 123.993 132.035 123.58C131.261 123.167 130.655 122.553 130.215 121.74C129.788 120.913 129.575 119.907 129.575 118.72C129.575 117.547 129.768 116.54 130.155 115.7C130.555 114.86 131.108 114.213 131.815 113.76C132.535 113.307 133.368 113.08 134.315 113.08ZM134.295 114.52C133.455 114.52 132.788 114.793 132.295 115.34C131.815 115.873 131.528 116.62 131.435 117.58H136.895C136.895 116.967 136.801 116.433 136.615 115.98C136.428 115.527 136.141 115.173 135.755 114.92C135.381 114.653 134.895 114.52 134.295 114.52ZM153.224 113.08C154.437 113.08 155.344 113.393 155.944 114.02C156.544 114.633 156.844 115.633 156.844 117.02V124H155.104V117.1C155.104 116.26 154.924 115.627 154.564 115.2C154.217 114.773 153.67 114.56 152.924 114.56C151.884 114.56 151.137 114.86 150.684 115.46C150.244 116.06 150.024 116.933 150.024 118.08V124H148.284V117.1C148.284 116.54 148.204 116.073 148.044 115.7C147.884 115.313 147.644 115.027 147.324 114.84C147.004 114.653 146.59 114.56 146.084 114.56C145.364 114.56 144.797 114.713 144.384 115.02C143.97 115.313 143.67 115.747 143.484 116.32C143.31 116.893 143.224 117.6 143.224 118.44V124H141.464V113.28H142.884L143.144 114.74H143.244C143.47 114.367 143.744 114.06 144.064 113.82C144.397 113.567 144.764 113.38 145.164 113.26C145.564 113.14 145.977 113.08 146.404 113.08C147.23 113.08 147.917 113.227 148.464 113.52C149.024 113.813 149.43 114.267 149.684 114.88H149.784C150.144 114.267 150.63 113.813 151.244 113.52C151.87 113.227 152.53 113.08 153.224 113.08ZM165.255 113.08C166.575 113.08 167.635 113.54 168.435 114.46C169.248 115.38 169.655 116.767 169.655 118.62C169.655 119.833 169.468 120.86 169.095 121.7C168.735 122.527 168.222 123.153 167.555 123.58C166.902 123.993 166.128 124.2 165.235 124.2C164.688 124.2 164.202 124.127 163.775 123.98C163.348 123.833 162.982 123.647 162.675 123.42C162.382 123.18 162.128 122.92 161.915 122.64H161.795C161.822 122.867 161.848 123.153 161.875 123.5C161.902 123.847 161.915 124.147 161.915 124.4V128.8H160.155V113.28H161.595L161.835 114.74H161.915C162.128 114.433 162.382 114.153 162.675 113.9C162.982 113.647 163.342 113.447 163.755 113.3C164.182 113.153 164.682 113.08 165.255 113.08ZM164.935 114.56C164.215 114.56 163.635 114.7 163.195 114.98C162.755 115.247 162.435 115.653 162.235 116.2C162.035 116.747 161.928 117.44 161.915 118.28V118.62C161.915 119.5 162.008 120.247 162.195 120.86C162.382 121.473 162.695 121.94 163.135 122.26C163.588 122.58 164.202 122.74 164.975 122.74C165.628 122.74 166.162 122.56 166.575 122.2C167.002 121.84 167.315 121.353 167.515 120.74C167.728 120.113 167.835 119.4 167.835 118.6C167.835 117.373 167.595 116.393 167.115 115.66C166.648 114.927 165.922 114.56 164.935 114.56ZM181.42 113.28V124H179.98L179.72 122.58H179.64C179.413 122.953 179.12 123.26 178.76 123.5C178.4 123.74 178.006 123.913 177.58 124.02C177.153 124.14 176.706 124.2 176.24 124.2C175.386 124.2 174.666 124.067 174.08 123.8C173.506 123.52 173.073 123.093 172.78 122.52C172.486 121.947 172.34 121.207 172.34 120.3V113.28H174.12V120.18C174.12 121.033 174.313 121.673 174.7 122.1C175.086 122.527 175.686 122.74 176.5 122.74C177.3 122.74 177.926 122.593 178.38 122.3C178.846 121.993 179.173 121.553 179.36 120.98C179.56 120.393 179.66 119.687 179.66 118.86V113.28H181.42ZM189.983 113.08C191.263 113.08 192.23 113.393 192.883 114.02C193.536 114.633 193.863 115.633 193.863 117.02V124H192.123V117.14C192.123 116.273 191.93 115.627 191.543 115.2C191.156 114.773 190.55 114.56 189.723 114.56C188.536 114.56 187.716 114.893 187.263 115.56C186.81 116.227 186.583 117.187 186.583 118.44V124H184.823V113.28H186.243L186.503 114.74H186.603C186.843 114.367 187.136 114.06 187.483 113.82C187.843 113.567 188.236 113.38 188.663 113.26C189.09 113.14 189.53 113.08 189.983 113.08ZM195.506 113.28H197.386L199.706 119.38C199.84 119.74 199.96 120.087 200.066 120.42C200.186 120.753 200.293 121.08 200.386 121.4C200.48 121.707 200.553 122.007 200.606 122.3H200.686C200.766 121.967 200.893 121.533 201.066 121C201.24 120.453 201.42 119.907 201.606 119.36L203.786 113.28H205.686L201.066 125.48C200.813 126.147 200.513 126.727 200.166 127.22C199.833 127.727 199.42 128.113 198.926 128.38C198.446 128.66 197.86 128.8 197.166 128.8C196.846 128.8 196.566 128.78 196.326 128.74C196.086 128.713 195.88 128.68 195.706 128.64V127.24C195.853 127.267 196.026 127.293 196.226 127.32C196.44 127.347 196.66 127.36 196.886 127.36C197.3 127.36 197.653 127.28 197.946 127.12C198.253 126.973 198.513 126.753 198.726 126.46C198.94 126.18 199.12 125.847 199.266 125.46L199.826 124.04L195.506 113.28ZM211.442 113.1C212.748 113.1 213.715 113.387 214.342 113.96C214.968 114.533 215.282 115.447 215.282 116.7V124H214.002L213.662 122.48H213.582C213.275 122.867 212.955 123.193 212.622 123.46C212.302 123.713 211.928 123.9 211.502 124.02C211.088 124.14 210.582 124.2 209.982 124.2C209.342 124.2 208.762 124.087 208.242 123.86C207.735 123.633 207.335 123.287 207.042 122.82C206.748 122.34 206.602 121.74 206.602 121.02C206.602 119.953 207.022 119.133 207.862 118.56C208.702 117.973 209.995 117.653 211.742 117.6L213.562 117.54V116.9C213.562 116.007 213.368 115.387 212.982 115.04C212.595 114.693 212.048 114.52 211.342 114.52C210.782 114.52 210.248 114.607 209.742 114.78C209.235 114.94 208.762 115.127 208.322 115.34L207.782 114.02C208.248 113.767 208.802 113.553 209.442 113.38C210.082 113.193 210.748 113.1 211.442 113.1ZM211.962 118.82C210.628 118.873 209.702 119.087 209.182 119.46C208.675 119.833 208.422 120.36 208.422 121.04C208.422 121.64 208.602 122.08 208.962 122.36C209.335 122.64 209.808 122.78 210.382 122.78C211.288 122.78 212.042 122.533 212.642 122.04C213.242 121.533 213.542 120.76 213.542 119.72V118.76L211.962 118.82ZM220.353 113.28V124H218.593V113.28H220.353ZM219.493 109.26C219.759 109.26 219.993 109.353 220.193 109.54C220.406 109.713 220.513 109.993 220.513 110.38C220.513 110.753 220.406 111.033 220.193 111.22C219.993 111.407 219.759 111.5 219.493 111.5C219.199 111.5 218.953 111.407 218.753 111.22C218.553 111.033 218.453 110.753 218.453 110.38C218.453 109.993 218.553 109.713 218.753 109.54C218.953 109.353 219.199 109.26 219.493 109.26ZM38.0674 136.5C38.0674 136.953 38.0541 137.38 38.0274 137.78C38.0141 138.167 37.9941 138.473 37.9674 138.7H38.0674C38.3741 138.247 38.7941 137.867 39.3274 137.56C39.8608 137.253 40.5474 137.1 41.3874 137.1C42.7208 137.1 43.7874 137.567 44.5874 138.5C45.4008 139.42 45.8074 140.8 45.8074 142.64C45.8074 143.867 45.6208 144.893 45.2474 145.72C44.8874 146.547 44.3741 147.167 43.7074 147.58C43.0408 147.993 42.2674 148.2 41.3874 148.2C40.5474 148.2 39.8608 148.047 39.3274 147.74C38.7941 147.433 38.3741 147.067 38.0674 146.64H37.9274L37.5674 148H36.3074V132.8H38.0674V136.5ZM41.0874 138.56C40.3274 138.56 39.7274 138.707 39.2874 139C38.8474 139.28 38.5341 139.72 38.3474 140.32C38.1608 140.907 38.0674 141.66 38.0674 142.58V142.66C38.0674 143.98 38.2808 144.993 38.7074 145.7C39.1474 146.393 39.9541 146.74 41.1274 146.74C42.0874 146.74 42.8008 146.387 43.2674 145.68C43.7474 144.973 43.9874 143.953 43.9874 142.62C43.9874 141.273 43.7474 140.26 43.2674 139.58C42.8008 138.9 42.0741 138.56 41.0874 138.56ZM52.6721 137.1C53.9788 137.1 54.9454 137.387 55.5721 137.96C56.1988 138.533 56.5121 139.447 56.5121 140.7V148H55.2321L54.8921 146.48H54.8121C54.5054 146.867 54.1854 147.193 53.8521 147.46C53.5321 147.713 53.1588 147.9 52.7321 148.02C52.3188 148.14 51.8121 148.2 51.2121 148.2C50.5721 148.2 49.9921 148.087 49.4721 147.86C48.9654 147.633 48.5654 147.287 48.2721 146.82C47.9788 146.34 47.8321 145.74 47.8321 145.02C47.8321 143.953 48.2521 143.133 49.0921 142.56C49.9321 141.973 51.2254 141.653 52.9721 141.6L54.7921 141.54V140.9C54.7921 140.007 54.5988 139.387 54.2121 139.04C53.8254 138.693 53.2788 138.52 52.5721 138.52C52.0121 138.52 51.4788 138.607 50.9721 138.78C50.4654 138.94 49.9921 139.127 49.5521 139.34L49.0121 138.02C49.4788 137.767 50.0321 137.553 50.6721 137.38C51.3121 137.193 51.9788 137.1 52.6721 137.1ZM53.1921 142.82C51.8588 142.873 50.9321 143.087 50.4121 143.46C49.9054 143.833 49.6521 144.36 49.6521 145.04C49.6521 145.64 49.8321 146.08 50.1921 146.36C50.5654 146.64 51.0388 146.78 51.6121 146.78C52.5188 146.78 53.2721 146.533 53.8721 146.04C54.4721 145.533 54.7721 144.76 54.7721 143.72V142.76L53.1921 142.82ZM63.403 146.76C63.6697 146.76 63.943 146.74 64.223 146.7C64.503 146.647 64.7297 146.593 64.903 146.54V147.88C64.7164 147.973 64.4497 148.047 64.103 148.1C63.7564 148.167 63.423 148.2 63.103 148.2C62.543 148.2 62.023 148.107 61.543 147.92C61.0764 147.72 60.6964 147.38 60.403 146.9C60.1097 146.42 59.963 145.747 59.963 144.88V138.64H58.443V137.8L59.983 137.1L60.683 134.82H61.723V137.28H64.823V138.64H61.723V144.84C61.723 145.493 61.8764 145.98 62.183 146.3C62.503 146.607 62.9097 146.76 63.403 146.76ZM71.1096 137.1C72.4163 137.1 73.3829 137.387 74.0096 137.96C74.6363 138.533 74.9496 139.447 74.9496 140.7V148H73.6696L73.3296 146.48H73.2496C72.9429 146.867 72.6229 147.193 72.2896 147.46C71.9696 147.713 71.5963 147.9 71.1696 148.02C70.7563 148.14 70.2496 148.2 69.6496 148.2C69.0096 148.2 68.4296 148.087 67.9096 147.86C67.4029 147.633 67.0029 147.287 66.7096 146.82C66.4163 146.34 66.2696 145.74 66.2696 145.02C66.2696 143.953 66.6896 143.133 67.5296 142.56C68.3696 141.973 69.6629 141.653 71.4096 141.6L73.2296 141.54V140.9C73.2296 140.007 73.0363 139.387 72.6496 139.04C72.2629 138.693 71.7163 138.52 71.0096 138.52C70.4496 138.52 69.9163 138.607 69.4096 138.78C68.9029 138.94 68.4296 139.127 67.9896 139.34L67.4496 138.02C67.9163 137.767 68.4696 137.553 69.1096 137.38C69.7496 137.193 70.4163 137.1 71.1096 137.1ZM71.6296 142.82C70.2963 142.873 69.3696 143.087 68.8496 143.46C68.3429 143.833 68.0896 144.36 68.0896 145.04C68.0896 145.64 68.2696 146.08 68.6296 146.36C69.0029 146.64 69.4763 146.78 70.0496 146.78C70.9563 146.78 71.7096 146.533 72.3096 146.04C72.9096 145.533 73.2096 144.76 73.2096 143.72V142.76L71.6296 142.82ZM85.2405 145.04C85.2405 145.733 85.0672 146.313 84.7205 146.78C84.3739 147.247 83.8805 147.6 83.2405 147.84C82.6005 148.08 81.8405 148.2 80.9605 148.2C80.2139 148.2 79.5672 148.14 79.0205 148.02C78.4872 147.9 78.0139 147.733 77.6005 147.52V145.92C78.0272 146.133 78.5405 146.333 79.1405 146.52C79.7539 146.693 80.3739 146.78 81.0005 146.78C81.8939 146.78 82.5405 146.64 82.9405 146.36C83.3405 146.067 83.5405 145.68 83.5405 145.2C83.5405 144.933 83.4672 144.693 83.3205 144.48C83.1739 144.267 82.9072 144.053 82.5205 143.84C82.1472 143.627 81.6072 143.387 80.9005 143.12C80.2072 142.853 79.6139 142.587 79.1205 142.32C78.6272 142.053 78.2472 141.733 77.9805 141.36C77.7139 140.987 77.5805 140.507 77.5805 139.92C77.5805 139.013 77.9472 138.313 78.6805 137.82C79.4272 137.327 80.4005 137.08 81.6005 137.08C82.2539 137.08 82.8605 137.147 83.4205 137.28C83.9939 137.4 84.5272 137.573 85.0205 137.8L84.4205 139.2C84.1272 139.067 83.8139 138.953 83.4805 138.86C83.1605 138.753 82.8339 138.673 82.5005 138.62C82.1672 138.553 81.8272 138.52 81.4805 138.52C80.7605 138.52 80.2072 138.64 79.8205 138.88C79.4472 139.107 79.2605 139.42 79.2605 139.82C79.2605 140.113 79.3472 140.367 79.5205 140.58C79.6939 140.78 79.9805 140.98 80.3805 141.18C80.7939 141.367 81.3405 141.593 82.0205 141.86C82.7005 142.113 83.2805 142.373 83.7605 142.64C84.2405 142.907 84.6072 143.233 84.8605 143.62C85.1139 143.993 85.2405 144.467 85.2405 145.04ZM94.7862 137.28V148H93.0262V137.28H94.7862ZM93.9262 133.26C94.1928 133.26 94.4262 133.353 94.6262 133.54C94.8395 133.713 94.9462 133.993 94.9462 134.38C94.9462 134.753 94.8395 135.033 94.6262 135.22C94.4262 135.407 94.1928 135.5 93.9262 135.5C93.6328 135.5 93.3862 135.407 93.1862 135.22C92.9862 135.033 92.8862 134.753 92.8862 134.38C92.8862 133.993 92.9862 133.713 93.1862 133.54C93.3862 133.353 93.6328 133.26 93.9262 133.26ZM105.102 148H97.2624V146.84L103.022 138.64H97.6024V137.28H104.962V138.6L99.2824 146.64H105.102V148ZM109.337 137.28V148H107.577V137.28H109.337ZM108.477 133.26C108.744 133.26 108.977 133.353 109.177 133.54C109.39 133.713 109.497 133.993 109.497 134.38C109.497 134.753 109.39 135.033 109.177 135.22C108.977 135.407 108.744 135.5 108.477 135.5C108.184 135.5 107.937 135.407 107.737 135.22C107.537 135.033 107.437 134.753 107.437 134.38C107.437 133.993 107.537 133.713 107.737 133.54C107.937 133.353 108.184 133.26 108.477 133.26ZM117.893 137.08C119.173 137.08 120.14 137.393 120.793 138.02C121.447 138.633 121.773 139.633 121.773 141.02V148H120.033V141.14C120.033 140.273 119.84 139.627 119.453 139.2C119.067 138.773 118.46 138.56 117.633 138.56C116.447 138.56 115.627 138.893 115.173 139.56C114.72 140.227 114.493 141.187 114.493 142.44V148H112.733V137.28H114.153L114.413 138.74H114.513C114.753 138.367 115.047 138.06 115.393 137.82C115.753 137.567 116.147 137.38 116.573 137.26C117 137.14 117.44 137.08 117.893 137.08ZM135.692 148H133.972V138.02C133.972 137.633 133.972 137.307 133.972 137.04C133.985 136.773 133.998 136.527 134.012 136.3C134.025 136.06 134.038 135.813 134.052 135.56C133.838 135.773 133.645 135.953 133.472 136.1C133.298 136.247 133.078 136.433 132.812 136.66L131.292 137.9L130.372 136.72L134.232 133.72H135.692V148ZM148.672 140.74C148.672 140.953 148.659 141.233 148.632 141.58C148.619 141.927 148.606 142.227 148.592 142.48H148.672C148.752 142.373 148.872 142.22 149.032 142.02C149.192 141.82 149.352 141.62 149.512 141.42C149.686 141.207 149.832 141.033 149.952 140.9L153.372 137.28H155.432L151.092 141.86L155.732 148H153.612L149.892 143L148.672 144.06V148H146.932V132.8H148.672V140.74ZM161.676 137.1C162.983 137.1 163.949 137.387 164.576 137.96C165.203 138.533 165.516 139.447 165.516 140.7V148H164.236L163.896 146.48H163.816C163.509 146.867 163.189 147.193 162.856 147.46C162.536 147.713 162.163 147.9 161.736 148.02C161.323 148.14 160.816 148.2 160.216 148.2C159.576 148.2 158.996 148.087 158.476 147.86C157.969 147.633 157.569 147.287 157.276 146.82C156.983 146.34 156.836 145.74 156.836 145.02C156.836 143.953 157.256 143.133 158.096 142.56C158.936 141.973 160.229 141.653 161.976 141.6L163.796 141.54V140.9C163.796 140.007 163.603 139.387 163.216 139.04C162.829 138.693 162.283 138.52 161.576 138.52C161.016 138.52 160.483 138.607 159.976 138.78C159.469 138.94 158.996 139.127 158.556 139.34L158.016 138.02C158.483 137.767 159.036 137.553 159.676 137.38C160.316 137.193 160.983 137.1 161.676 137.1ZM162.196 142.82C160.863 142.873 159.936 143.087 159.416 143.46C158.909 143.833 158.656 144.36 158.656 145.04C158.656 145.64 158.836 146.08 159.196 146.36C159.569 146.64 160.043 146.78 160.616 146.78C161.523 146.78 162.276 146.533 162.876 146.04C163.476 145.533 163.776 144.76 163.776 143.72V142.76L162.196 142.82ZM170.587 148H168.827V132.8H170.587V148ZM175.743 137.28V148H173.983V137.28H175.743ZM174.883 133.26C175.15 133.26 175.383 133.353 175.583 133.54C175.797 133.713 175.903 133.993 175.903 134.38C175.903 134.753 175.797 135.033 175.583 135.22C175.383 135.407 175.15 135.5 174.883 135.5C174.59 135.5 174.343 135.407 174.143 135.22C173.943 135.033 173.843 134.753 173.843 134.38C173.843 133.993 173.943 133.713 174.143 133.54C174.343 133.353 174.59 133.26 174.883 133.26ZM191.315 145.04C191.315 145.733 191.141 146.313 190.795 146.78C190.448 147.247 189.955 147.6 189.315 147.84C188.675 148.08 187.915 148.2 187.035 148.2C186.288 148.2 185.641 148.14 185.095 148.02C184.561 147.9 184.088 147.733 183.675 147.52V145.92C184.101 146.133 184.615 146.333 185.215 146.52C185.828 146.693 186.448 146.78 187.075 146.78C187.968 146.78 188.615 146.64 189.015 146.36C189.415 146.067 189.615 145.68 189.615 145.2C189.615 144.933 189.541 144.693 189.395 144.48C189.248 144.267 188.981 144.053 188.595 143.84C188.221 143.627 187.681 143.387 186.975 143.12C186.281 142.853 185.688 142.587 185.195 142.32C184.701 142.053 184.321 141.733 184.055 141.36C183.788 140.987 183.655 140.507 183.655 139.92C183.655 139.013 184.021 138.313 184.755 137.82C185.501 137.327 186.475 137.08 187.675 137.08C188.328 137.08 188.935 137.147 189.495 137.28C190.068 137.4 190.601 137.573 191.095 137.8L190.495 139.2C190.201 139.067 189.888 138.953 189.555 138.86C189.235 138.753 188.908 138.673 188.575 138.62C188.241 138.553 187.901 138.52 187.555 138.52C186.835 138.52 186.281 138.64 185.895 138.88C185.521 139.107 185.335 139.42 185.335 139.82C185.335 140.113 185.421 140.367 185.595 140.58C185.768 140.78 186.055 140.98 186.455 141.18C186.868 141.367 187.415 141.593 188.095 141.86C188.775 142.113 189.355 142.373 189.835 142.64C190.315 142.907 190.681 143.233 190.935 143.62C191.188 143.993 191.315 144.467 191.315 145.04ZM198.045 137.08C198.965 137.08 199.752 137.28 200.405 137.68C201.072 138.08 201.578 138.647 201.925 139.38C202.285 140.1 202.465 140.947 202.465 141.92V142.98H195.125C195.152 144.193 195.458 145.12 196.045 145.76C196.645 146.387 197.478 146.7 198.545 146.7C199.225 146.7 199.825 146.64 200.345 146.52C200.878 146.387 201.425 146.2 201.985 145.96V147.5C201.438 147.74 200.898 147.913 200.365 148.02C199.832 148.14 199.198 148.2 198.465 148.2C197.452 148.2 196.552 147.993 195.765 147.58C194.992 147.167 194.385 146.553 193.945 145.74C193.518 144.913 193.305 143.907 193.305 142.72C193.305 141.547 193.498 140.54 193.885 139.7C194.285 138.86 194.838 138.213 195.545 137.76C196.265 137.307 197.098 137.08 198.045 137.08ZM198.025 138.52C197.185 138.52 196.518 138.793 196.025 139.34C195.545 139.873 195.258 140.62 195.165 141.58H200.625C200.625 140.967 200.532 140.433 200.345 139.98C200.158 139.527 199.872 139.173 199.485 138.92C199.112 138.653 198.625 138.52 198.025 138.52ZM208.774 146.76C209.041 146.76 209.314 146.74 209.594 146.7C209.874 146.647 210.101 146.593 210.274 146.54V147.88C210.087 147.973 209.821 148.047 209.474 148.1C209.127 148.167 208.794 148.2 208.474 148.2C207.914 148.2 207.394 148.107 206.914 147.92C206.447 147.72 206.067 147.38 205.774 146.9C205.481 146.42 205.334 145.747 205.334 144.88V138.64H203.814V137.8L205.354 137.1L206.054 134.82H207.094V137.28H210.194V138.64H207.094V144.84C207.094 145.493 207.247 145.98 207.554 146.3C207.874 146.607 208.281 146.76 208.774 146.76ZM214.181 137.28V148H212.421V137.28H214.181ZM213.321 133.26C213.587 133.26 213.821 133.353 214.021 133.54C214.234 133.713 214.341 133.993 214.341 134.38C214.341 134.753 214.234 135.033 214.021 135.22C213.821 135.407 213.587 135.5 213.321 135.5C213.027 135.5 212.781 135.407 212.581 135.22C212.381 135.033 212.281 134.753 212.281 134.38C212.281 133.993 212.381 133.713 212.581 133.54C212.781 133.353 213.027 133.26 213.321 133.26ZM221.637 137.1C222.944 137.1 223.91 137.387 224.537 137.96C225.164 138.533 225.477 139.447 225.477 140.7V148H224.197L223.857 146.48H223.777C223.47 146.867 223.15 147.193 222.817 147.46C222.497 147.713 222.124 147.9 221.697 148.02C221.284 148.14 220.777 148.2 220.177 148.2C219.537 148.2 218.957 148.087 218.437 147.86C217.93 147.633 217.53 147.287 217.237 146.82C216.944 146.34 216.797 145.74 216.797 145.02C216.797 143.953 217.217 143.133 218.057 142.56C218.897 141.973 220.19 141.653 221.937 141.6L223.757 141.54V140.9C223.757 140.007 223.564 139.387 223.177 139.04C222.79 138.693 222.244 138.52 221.537 138.52C220.977 138.52 220.444 138.607 219.937 138.78C219.43 138.94 218.957 139.127 218.517 139.34L217.977 138.02C218.444 137.767 218.997 137.553 219.637 137.38C220.277 137.193 220.944 137.1 221.637 137.1ZM222.157 142.82C220.824 142.873 219.897 143.087 219.377 143.46C218.87 143.833 218.617 144.36 218.617 145.04C218.617 145.64 218.797 146.08 219.157 146.36C219.53 146.64 220.004 146.78 220.577 146.78C221.484 146.78 222.237 146.533 222.837 146.04C223.437 145.533 223.737 144.76 223.737 143.72V142.76L222.157 142.82ZM233.888 137.08C235.208 137.08 236.268 137.54 237.068 138.46C237.881 139.38 238.288 140.767 238.288 142.62C238.288 143.833 238.101 144.86 237.728 145.7C237.368 146.527 236.855 147.153 236.188 147.58C235.535 147.993 234.761 148.2 233.868 148.2C233.321 148.2 232.835 148.127 232.408 147.98C231.981 147.833 231.615 147.647 231.308 147.42C231.015 147.18 230.761 146.92 230.548 146.64H230.428C230.455 146.867 230.481 147.153 230.508 147.5C230.535 147.847 230.548 148.147 230.548 148.4V152.8H228.788V137.28H230.228L230.468 138.74H230.548C230.761 138.433 231.015 138.153 231.308 137.9C231.615 137.647 231.975 137.447 232.388 137.3C232.815 137.153 233.315 137.08 233.888 137.08ZM233.568 138.56C232.848 138.56 232.268 138.7 231.828 138.98C231.388 139.247 231.068 139.653 230.868 140.2C230.668 140.747 230.561 141.44 230.548 142.28V142.62C230.548 143.5 230.641 144.247 230.828 144.86C231.015 145.473 231.328 145.94 231.768 146.26C232.221 146.58 232.835 146.74 233.608 146.74C234.261 146.74 234.795 146.56 235.208 146.2C235.635 145.84 235.948 145.353 236.148 144.74C236.361 144.113 236.468 143.4 236.468 142.6C236.468 141.373 236.228 140.393 235.748 139.66C235.281 138.927 234.555 138.56 233.568 138.56ZM96.9834 161.08C98.1968 161.08 99.1034 161.393 99.7034 162.02C100.303 162.633 100.603 163.633 100.603 165.02V172H98.8634V165.1C98.8634 164.26 98.6834 163.627 98.3234 163.2C97.9768 162.773 97.4301 162.56 96.6834 162.56C95.6434 162.56 94.8968 162.86 94.4434 163.46C94.0034 164.06 93.7834 164.933 93.7834 166.08V172H92.0434V165.1C92.0434 164.54 91.9634 164.073 91.8034 163.7C91.6434 163.313 91.4034 163.027 91.0834 162.84C90.7634 162.653 90.3501 162.56 89.8434 162.56C89.1234 162.56 88.5568 162.713 88.1434 163.02C87.7301 163.313 87.4301 163.747 87.2434 164.32C87.0701 164.893 86.9834 165.6 86.9834 166.44V172H85.2234V161.28H86.6434L86.9034 162.74H87.0034C87.2301 162.367 87.5034 162.06 87.8234 161.82C88.1568 161.567 88.5234 161.38 88.9234 161.26C89.3234 161.14 89.7368 161.08 90.1634 161.08C90.9901 161.08 91.6768 161.227 92.2234 161.52C92.7834 161.813 93.1901 162.267 93.4434 162.88H93.5434C93.9034 162.267 94.3901 161.813 95.0034 161.52C95.6301 161.227 96.2901 161.08 96.9834 161.08ZM105.675 161.28V172H103.915V161.28H105.675ZM104.815 157.26C105.082 157.26 105.315 157.353 105.515 157.54C105.728 157.713 105.835 157.993 105.835 158.38C105.835 158.753 105.728 159.033 105.515 159.22C105.315 159.407 105.082 159.5 104.815 159.5C104.522 159.5 104.275 159.407 104.075 159.22C103.875 159.033 103.775 158.753 103.775 158.38C103.775 157.993 103.875 157.713 104.075 157.54C104.275 157.353 104.522 157.26 104.815 157.26ZM114.231 161.08C115.511 161.08 116.478 161.393 117.131 162.02C117.784 162.633 118.111 163.633 118.111 165.02V172H116.371V165.14C116.371 164.273 116.178 163.627 115.791 163.2C115.404 162.773 114.798 162.56 113.971 162.56C112.784 162.56 111.964 162.893 111.511 163.56C111.058 164.227 110.831 165.187 110.831 166.44V172H109.071V161.28H110.491L110.751 162.74H110.851C111.091 162.367 111.384 162.06 111.731 161.82C112.091 161.567 112.484 161.38 112.911 161.26C113.338 161.14 113.778 161.08 114.231 161.08ZM125.234 161.08C125.941 161.08 126.574 161.213 127.134 161.48C127.708 161.747 128.194 162.153 128.594 162.7H128.694L128.934 161.28H130.334V172.18C130.334 173.193 130.161 174.04 129.814 174.72C129.468 175.413 128.941 175.933 128.234 176.28C127.528 176.627 126.628 176.8 125.534 176.8C124.761 176.8 124.048 176.74 123.394 176.62C122.754 176.513 122.181 176.347 121.674 176.12V174.5C122.021 174.673 122.401 174.82 122.814 174.94C123.228 175.073 123.674 175.173 124.154 175.24C124.634 175.307 125.128 175.34 125.634 175.34C126.554 175.34 127.274 175.067 127.794 174.52C128.328 173.987 128.594 173.253 128.594 172.32V171.9C128.594 171.74 128.601 171.513 128.614 171.22C128.628 170.913 128.641 170.7 128.654 170.58H128.574C128.201 171.127 127.734 171.533 127.174 171.8C126.628 172.067 125.988 172.2 125.254 172.2C123.868 172.2 122.781 171.713 121.994 170.74C121.221 169.767 120.834 168.407 120.834 166.66C120.834 165.513 121.008 164.527 121.354 163.7C121.714 162.86 122.221 162.213 122.874 161.76C123.528 161.307 124.314 161.08 125.234 161.08ZM125.474 162.56C124.874 162.56 124.361 162.72 123.934 163.04C123.521 163.36 123.201 163.827 122.974 164.44C122.761 165.053 122.654 165.8 122.654 166.68C122.654 168 122.894 169.013 123.374 169.72C123.868 170.413 124.581 170.76 125.514 170.76C126.061 170.76 126.528 170.693 126.914 170.56C127.301 170.413 127.621 170.193 127.874 169.9C128.128 169.593 128.314 169.207 128.434 168.74C128.554 168.273 128.614 167.72 128.614 167.08V166.66C128.614 165.687 128.501 164.9 128.274 164.3C128.061 163.7 127.721 163.26 127.254 162.98C126.788 162.7 126.194 162.56 125.474 162.56ZM137.539 161.08C138.246 161.08 138.879 161.213 139.439 161.48C140.012 161.747 140.499 162.153 140.899 162.7H140.999L141.239 161.28H142.639V172.18C142.639 173.193 142.466 174.04 142.119 174.72C141.772 175.413 141.246 175.933 140.539 176.28C139.832 176.627 138.932 176.8 137.839 176.8C137.066 176.8 136.352 176.74 135.699 176.62C135.059 176.513 134.486 176.347 133.979 176.12V174.5C134.326 174.673 134.706 174.82 135.119 174.94C135.532 175.073 135.979 175.173 136.459 175.24C136.939 175.307 137.432 175.34 137.939 175.34C138.859 175.34 139.579 175.067 140.099 174.52C140.632 173.987 140.899 173.253 140.899 172.32V171.9C140.899 171.74 140.906 171.513 140.919 171.22C140.932 170.913 140.946 170.7 140.959 170.58H140.879C140.506 171.127 140.039 171.533 139.479 171.8C138.932 172.067 138.292 172.2 137.559 172.2C136.172 172.2 135.086 171.713 134.299 170.74C133.526 169.767 133.139 168.407 133.139 166.66C133.139 165.513 133.312 164.527 133.659 163.7C134.019 162.86 134.526 162.213 135.179 161.76C135.832 161.307 136.619 161.08 137.539 161.08ZM137.779 162.56C137.179 162.56 136.666 162.72 136.239 163.04C135.826 163.36 135.506 163.827 135.279 164.44C135.066 165.053 134.959 165.8 134.959 166.68C134.959 168 135.199 169.013 135.679 169.72C136.172 170.413 136.886 170.76 137.819 170.76C138.366 170.76 138.832 170.693 139.219 170.56C139.606 170.413 139.926 170.193 140.179 169.9C140.432 169.593 140.619 169.207 140.739 168.74C140.859 168.273 140.919 167.72 140.919 167.08V166.66C140.919 165.687 140.806 164.9 140.579 164.3C140.366 163.7 140.026 163.26 139.559 162.98C139.092 162.7 138.499 162.56 137.779 162.56ZM155.004 161.28V172H153.564L153.304 170.58H153.224C152.997 170.953 152.704 171.26 152.344 171.5C151.984 171.74 151.59 171.913 151.164 172.02C150.737 172.14 150.29 172.2 149.824 172.2C148.97 172.2 148.25 172.067 147.664 171.8C147.09 171.52 146.657 171.093 146.364 170.52C146.07 169.947 145.924 169.207 145.924 168.3V161.28H147.704V168.18C147.704 169.033 147.897 169.673 148.284 170.1C148.67 170.527 149.27 170.74 150.084 170.74C150.884 170.74 151.51 170.593 151.964 170.3C152.43 169.993 152.757 169.553 152.944 168.98C153.144 168.393 153.244 167.687 153.244 166.86V161.28H155.004ZM163.567 161.08C164.847 161.08 165.814 161.393 166.467 162.02C167.12 162.633 167.447 163.633 167.447 165.02V172H165.707V165.14C165.707 164.273 165.514 163.627 165.127 163.2C164.74 162.773 164.134 162.56 163.307 162.56C162.12 162.56 161.3 162.893 160.847 163.56C160.394 164.227 160.167 165.187 160.167 166.44V172H158.407V161.28H159.827L160.087 162.74H160.187C160.427 162.367 160.72 162.06 161.067 161.82C161.427 161.567 161.82 161.38 162.247 161.26C162.674 161.14 163.114 161.08 163.567 161.08ZM169.09 161.28H170.97L173.29 167.38C173.424 167.74 173.544 168.087 173.65 168.42C173.77 168.753 173.877 169.08 173.97 169.4C174.064 169.707 174.137 170.007 174.19 170.3H174.27C174.35 169.967 174.477 169.533 174.65 169C174.824 168.453 175.004 167.907 175.19 167.36L177.37 161.28H179.27L174.65 173.48C174.397 174.147 174.097 174.727 173.75 175.22C173.417 175.727 173.004 176.113 172.51 176.38C172.03 176.66 171.444 176.8 170.75 176.8C170.43 176.8 170.15 176.78 169.91 176.74C169.67 176.713 169.464 176.68 169.29 176.64V175.24C169.437 175.267 169.61 175.293 169.81 175.32C170.024 175.347 170.244 175.36 170.47 175.36C170.884 175.36 171.237 175.28 171.53 175.12C171.837 174.973 172.097 174.753 172.31 174.46C172.524 174.18 172.704 173.847 172.85 173.46L173.41 172.04L169.09 161.28ZM185.026 161.1C186.332 161.1 187.299 161.387 187.926 161.96C188.552 162.533 188.866 163.447 188.866 164.7V172H187.586L187.246 170.48H187.166C186.859 170.867 186.539 171.193 186.206 171.46C185.886 171.713 185.512 171.9 185.086 172.02C184.672 172.14 184.166 172.2 183.566 172.2C182.926 172.2 182.346 172.087 181.826 171.86C181.319 171.633 180.919 171.287 180.626 170.82C180.332 170.34 180.186 169.74 180.186 169.02C180.186 167.953 180.606 167.133 181.446 166.56C182.286 165.973 183.579 165.653 185.326 165.6L187.146 165.54V164.9C187.146 164.007 186.952 163.387 186.566 163.04C186.179 162.693 185.632 162.52 184.926 162.52C184.366 162.52 183.832 162.607 183.326 162.78C182.819 162.94 182.346 163.127 181.906 163.34L181.366 162.02C181.832 161.767 182.386 161.553 183.026 161.38C183.666 161.193 184.332 161.1 185.026 161.1ZM185.546 166.82C184.212 166.873 183.286 167.087 182.766 167.46C182.259 167.833 182.006 168.36 182.006 169.04C182.006 169.64 182.186 170.08 182.546 170.36C182.919 170.64 183.392 170.78 183.966 170.78C184.872 170.78 185.626 170.533 186.226 170.04C186.826 169.533 187.126 168.76 187.126 167.72V166.76L185.546 166.82Z" fill="#B0B0B0"/>
</svg>
