<svg width="26" height="26" viewBox="0 0 26 26" fill="none" xmlns="http://www.w3.org/2000/svg">
<path d="M11.0416 5.43717C11.0416 8.25613 8.75643 10.5413 5.93748 10.5413C3.11853 10.5413 0.833313 8.25613 0.833313 5.43717C0.833313 2.61822 3.11853 0.333008 5.93748 0.333008C8.75643 0.333008 11.0416 2.61822 11.0416 5.43717Z" fill="white"/>
<path d="M25.625 5.43717C25.625 8.25613 23.3398 10.5413 20.5208 10.5413C17.7019 10.5413 15.4166 8.25613 15.4166 5.43717C15.4166 2.61822 17.7019 0.333008 20.5208 0.333008C23.3398 0.333008 25.625 2.61822 25.625 5.43717Z" fill="white"/>
<path d="M11.0416 20.0205C11.0416 22.8395 8.75643 25.1247 5.93748 25.1247C3.11853 25.1247 0.833313 22.8395 0.833313 20.0205C0.833313 17.2016 3.11853 14.9163 5.93748 14.9163C8.75643 14.9163 11.0416 17.2016 11.0416 20.0205Z" fill="white"/>
<path d="M25.625 20.0205C25.625 22.8395 23.3398 25.1247 20.5208 25.1247C17.7019 25.1247 15.4166 22.8395 15.4166 20.0205C15.4166 17.2016 17.7019 14.9163 20.5208 14.9163C23.3398 14.9163 25.625 17.2016 25.625 20.0205Z" fill="white"/>
</svg>
