<svg width="28" height="32" viewBox="0 0 28 32" fill="none" xmlns="http://www.w3.org/2000/svg">
<path d="M19.7458 16.7575L14.3208 22.1971C14.091 22.4278 13.7788 22.5574 13.4531 22.5574C13.1275 22.5574 12.8153 22.4278 12.5854 22.1971C12.1206 21.712 12.1206 20.9468 12.5854 20.4617L15.9396 17.1221H1.225C0.548451 17.1221 0 16.5737 0 15.8971C0 15.2206 0.548451 14.6721 1.225 14.6721L15.9396 14.6721L12.5854 11.3325C12.1206 10.8474 12.1206 10.0822 12.5854 9.59713C12.8153 9.36647 13.1275 9.23683 13.4531 9.23683C13.7788 9.23683 14.091 9.36647 14.3208 9.59713L19.7458 15.0367C19.9805 15.2612 20.1123 15.5724 20.1104 15.8971C20.1159 16.2226 19.9834 16.5351 19.7458 16.7575Z" fill="#B0B0B0"/>
<path d="M7.90417 8.28462L7.90417 6.52003C7.9839 2.85051 11.0156 -0.0638351 14.6854 0.00128365H20.2417C23.9115 -0.0638351 26.9432 2.85051 27.0229 6.52003L26.9063 25.2742C26.8265 28.9437 23.7948 31.8581 20.125 31.793H14.5688C12.7986 31.836 11.084 31.1728 9.80358 29.9498C8.52311 28.7268 7.78197 27.0445 7.74375 25.2742V23.5096C7.74375 22.8331 8.2922 22.2846 8.96875 22.2846C9.6453 22.2846 10.1938 22.8331 10.1938 23.5096L10.1938 25.2742C10.2278 26.3962 10.7096 27.4578 11.5316 28.2222C12.3535 28.9866 13.4473 29.3902 14.5688 29.343L20.0813 29.343C21.2027 29.3902 22.2965 28.9866 23.1184 28.2222C23.9404 27.4578 24.4222 26.3962 24.4563 25.2742L24.6604 6.52003C24.6263 5.39807 24.1446 4.33644 23.3226 3.57202C22.5006 2.80759 21.4069 2.404 20.2854 2.45128H14.7292C13.6077 2.404 12.5139 2.80759 11.692 3.57202C10.87 4.33644 10.3882 5.39807 10.3542 6.52003V8.28462C10.3542 8.96117 9.80572 9.50962 9.12917 9.50962C8.45262 9.50962 7.90417 8.96117 7.90417 8.28462Z" fill="#B0B0B0"/>
</svg>
