<svg width="28" height="34" viewBox="0 0 28 34" fill="none" xmlns="http://www.w3.org/2000/svg">
<path d="M22.2157 33.5H5.78432C3.99453 33.4394 2.3273 32.6371 1.23798 31.3123C0.148658 29.9876 -0.248951 28.2787 0.153747 26.6525L0.578696 24.7715C1.06745 22.2252 3.41633 20.3539 6.19156 20.3H21.8084C24.5837 20.3539 26.9326 22.2252 27.4213 24.7715L27.8463 26.6525C28.249 28.2787 27.8513 29.9876 26.762 31.3123C25.6727 32.6371 24.0055 33.4394 22.2157 33.5Z" fill="#5662C2"/>
<path d="M14.8853 17H13.1147C9.20314 17 6.03221 14.0451 6.03221 10.4V6.04402C6.02749 4.57232 6.65277 3.15962 7.7695 2.11897C8.88623 1.07831 10.4022 0.495625 11.9815 0.500025H16.0185C17.5978 0.495625 19.1138 1.07831 20.2305 2.11897C21.3472 3.15962 21.9725 4.57232 21.9678 6.04402V10.4C21.9678 12.1504 21.2216 13.8292 19.8934 15.0669C18.5652 16.3047 16.7637 17 14.8853 17Z" fill="#5662C2"/>
</svg>
